<?xml version="1.0" encoding="utf-8"?>
<!-- Generator: Adobe Illustrator 19.2.1, SVG Export Plug-In . SVG Version: 6.00 Build 0)  -->
<svg version="1.1" id="Layer_1" xmlns="http://www.w3.org/2000/svg" xmlns:xlink="http://www.w3.org/1999/xlink" x="0px" y="0px"
	 viewBox="0 0 180.2 193.8" style="enable-background:new 0 0 180.2 193.8;" xml:space="preserve">
<style type="text/css">
	.st0{fill:#3498DB;}
</style>
<g>
	<path class="st0" d="M124.4,54.4c0,18.9-15.4,34.3-34.3,34.3S55.8,73.4,55.8,54.4s15.4-34.3,34.3-34.3S124.4,35.5,124.4,54.4z"/>
	<path class="st0" d="M96.1,99.4H79.6c0,0-15.4-0.6-24.2,12C46.6,124,40,163.6,40,163.6s-1.7,10.5,10.1,10.1h78.2
		c0,0,11.6,0.4,11.6-10.1c0,0-5.4-38.5-15.9-51.6C115.4,97.2,96.1,99.4,96.1,99.4z"/>
	<g>
		<path class="st0" d="M50.5,108.2c4.1-5.8,9.2-9.4,14.1-11.4c-1.3-3.8-3-7.1-4.9-9.6c-6.2-10.5-19.9-9-19.9-9H28.2
			c0,0-10.9-0.4-17.3,8.6C4.7,95.9,0,124,0,124s-1.1,7.5,7.3,7.3h34C43.8,122.1,47,113.5,50.5,108.2z"/>
		<g>
			<path class="st0" d="M48.1,54.4c0-7.9,2.4-15.4,6.4-21.6c-4.3-6.6-11.8-10.9-20.3-10.9c-13.5,0-24.4,10.9-24.4,24.4
				s10.9,24.4,24.4,24.4c5.8,0,11.3-2.1,15.4-5.4C48.6,61.7,48.1,58.2,48.1,54.4z"/>
		</g>
	</g>
	<g>
		<path class="st0" d="M129.7,108.2c-4.1-5.8-9.2-9.4-14.1-11.4c1.3-3.8,3-7.1,4.9-9.6c6.2-10.5,19.9-9,19.9-9H152
			c0,0,10.9-0.4,17.3,8.6c6.2,9,10.9,37.1,10.9,37.1s1.1,7.5-7.3,7.3h-33.8C136.4,122.1,133.2,113.5,129.7,108.2z"/>
		<g>
			<path class="st0" d="M132.1,54.4c0-7.9-2.4-15.4-6.4-21.6c4.3-6.6,11.8-10.9,20.3-10.9c13.5,0,24.4,10.9,24.4,24.4
				S159.5,70.7,146,70.7c-5.8,0-11.3-2.1-15.4-5.4C131.6,61.7,132.1,58.2,132.1,54.4z"/>
		</g>
	</g>
</g>
</svg>
